# Blender v2.79 (sub 0) OBJ File: 'Bush.blend'
# www.blender.org
mtllib Bush.mtl
o Cube.002
v 0.750000 -0.020000 -0.750000
v 0.750000 -0.020000 0.750000
v -0.750000 -0.020000 0.750000
v -0.749999 -0.020000 -0.750000
v 0.750000 1.480000 -0.749999
v 0.749999 1.480000 0.750000
v -0.750000 1.480000 0.749999
v -0.750000 1.480000 -0.750000
vn 0.0000 -1.0000 0.0000
vn 0.0000 1.0000 0.0000
vn 1.0000 0.0000 0.0000
vn -0.0000 -0.0000 1.0000
vn -1.0000 -0.0000 -0.0000
vn 0.0000 0.0000 -1.0000
usemtl Material.002
s off
f 1//1 2//1 3//1 4//1
f 5//2 8//2 7//2 6//2
f 1//3 5//3 6//3 2//3
f 2//4 6//4 7//4 3//4
f 3//5 7//5 8//5 4//5
f 5//6 1//6 4//6 8//6
o Cube.005
v 0.493215 0.203528 0.478097
v 0.493215 0.203528 1.038097
v -0.066785 0.203528 1.038097
v -0.066785 0.203528 0.478097
v 0.493215 0.763528 0.478097
v 0.493215 0.763528 1.038097
v -0.066785 0.763528 1.038097
v -0.066785 0.763528 0.478097
v 0.330000 0.355000 -1.125000
v 0.330000 0.355000 -0.375000
v -0.330000 0.355000 -0.375000
v -0.330000 0.355000 -1.125000
v 0.330000 1.105000 -1.125000
v 0.330000 1.105000 -0.375000
v -0.330000 1.105000 -0.375000
v -0.330000 1.105000 -1.125000
v 0.750000 -0.020000 -0.750000
v 0.750000 -0.020000 0.750000
v -0.750000 -0.020000 0.750000
v -0.749999 -0.020000 -0.750000
v 0.750000 1.480000 -0.749999
v 0.749999 1.480000 0.750000
v -0.750000 1.480000 0.749999
v -0.750000 1.480000 -0.750000
v 1.175598 0.260088 -0.495389
v 1.175598 0.260088 0.254610
v 0.425598 0.260088 0.254610
v 0.425599 0.260088 -0.495390
v 1.175598 1.010088 -0.495389
v 1.175598 1.010088 0.254610
v 0.425598 1.010088 0.254610
v 0.425598 1.010088 -0.495389
v -0.327308 0.355000 -0.031847
v -0.327308 0.355000 0.718153
v -1.077308 0.355000 0.718153
v -1.077307 0.355000 -0.031847
v -0.327308 1.105000 -0.031847
v -0.327308 1.105000 0.718153
v -1.077308 1.105000 0.718153
v -1.077308 1.105000 -0.031847
vn 0.0000 -1.0000 -0.0000
vn 0.0000 1.0000 -0.0000
vn 1.0000 0.0000 0.0000
vn -0.0000 -0.0000 1.0000
vn -1.0000 -0.0000 -0.0000
vn 0.0000 0.0000 -1.0000
usemtl Material.006
s off
f 9//7 10//7 11//7 12//7
f 13//8 16//8 15//8 14//8
f 9//9 13//9 14//9 10//9
f 10//10 14//10 15//10 11//10
f 11//11 15//11 16//11 12//11
f 13//12 9//12 12//12 16//12
f 17//7 18//7 19//7 20//7
f 21//8 24//8 23//8 22//8
f 17//9 21//9 22//9 18//9
f 18//10 22//10 23//10 19//10
f 19//11 23//11 24//11 20//11
f 21//12 17//12 20//12 24//12
f 25//7 26//7 27//7 28//7
f 29//8 32//8 31//8 30//8
f 25//9 29//9 30//9 26//9
f 26//10 30//10 31//10 27//10
f 27//11 31//11 32//11 28//11
f 29//12 25//12 28//12 32//12
f 33//7 34//7 35//7 36//7
f 37//8 40//8 39//8 38//8
f 33//9 37//9 38//9 34//9
f 34//10 38//10 39//10 35//10
f 35//11 39//11 40//11 36//11
f 37//12 33//12 36//12 40//12
f 41//7 42//7 43//7 44//7
f 45//8 48//8 47//8 46//8
f 41//9 45//9 46//9 42//9
f 42//10 46//10 47//10 43//10
f 43//11 47//11 48//11 44//11
f 45//12 41//12 44//12 48//12
