# Blender v2.79 (sub 0) OBJ File: 'mushroom.blend'
# www.blender.org
mtllib mushroom.mtl
o Cube.004_Cube.005
v -0.020707 0.182808 -0.064293
v -0.020707 0.252808 -0.064293
v -0.020707 0.182808 -0.134293
v -0.020707 0.252808 -0.134293
v 0.049293 0.182808 -0.064293
v 0.049293 0.252808 -0.064293
v 0.049293 0.182808 -0.134293
v 0.049293 0.252808 -0.134293
v 0.075598 0.212243 0.024928
v 0.075598 0.282243 0.024928
v 0.075598 0.212243 -0.045072
v 0.075598 0.282243 -0.045072
v 0.145598 0.212243 0.024928
v 0.145598 0.282243 0.024928
v 0.145598 0.212243 -0.045072
v 0.145598 0.282243 -0.045072
v -0.026710 0.005044 0.045624
v -0.026710 0.115044 0.045624
v -0.026710 0.005044 -0.014376
v -0.026710 0.115044 -0.014376
v 0.033290 0.005044 0.045624
v 0.033290 0.115044 0.045624
v 0.033290 0.005044 -0.014376
v 0.033290 0.115044 -0.014376
v -0.120000 0.120048 0.130000
v -0.120000 0.360048 0.130000
v -0.120000 0.120048 -0.110000
v -0.120000 0.360048 -0.110000
v 0.120000 0.120048 0.130000
v 0.120000 0.360048 0.130000
v 0.120000 0.120048 -0.110000
v 0.120000 0.360048 -0.110000
v -0.162771 0.185742 0.049744
v -0.162771 0.275742 0.049744
v -0.162771 0.185742 -0.040256
v -0.162771 0.275742 -0.040256
v -0.072771 0.185742 0.049744
v -0.072771 0.275742 0.049744
v -0.072771 0.185742 -0.040256
v -0.072771 0.275742 -0.040256
v -0.037277 0.222243 0.154558
v -0.037277 0.292243 0.154558
v -0.037277 0.222243 0.084558
v -0.037277 0.292243 0.084558
v 0.032723 0.222243 0.154558
v 0.032723 0.292243 0.154558
v 0.032723 0.222243 0.084558
v 0.032723 0.292243 0.084558
vn -1.0000 0.0000 0.0000
vn 0.0000 0.0000 -1.0000
vn 1.0000 0.0000 0.0000
vn 0.0000 0.0000 1.0000
vn 0.0000 -1.0000 0.0000
vn 0.0000 1.0000 0.0000
usemtl Material.001
s off
f 1//1 2//1 4//1 3//1
f 3//2 4//2 8//2 7//2
f 7//3 8//3 6//3 5//3
f 5//4 6//4 2//4 1//4
f 3//5 7//5 5//5 1//5
f 8//6 4//6 2//6 6//6
f 9//1 10//1 12//1 11//1
f 11//2 12//2 16//2 15//2
f 15//3 16//3 14//3 13//3
f 13//4 14//4 10//4 9//4
f 11//5 15//5 13//5 9//5
f 16//6 12//6 10//6 14//6
f 17//1 18//1 20//1 19//1
f 19//2 20//2 24//2 23//2
f 23//3 24//3 22//3 21//3
f 21//4 22//4 18//4 17//4
f 19//5 23//5 21//5 17//5
f 24//6 20//6 18//6 22//6
f 25//1 26//1 28//1 27//1
f 27//2 28//2 32//2 31//2
f 31//3 32//3 30//3 29//3
f 29//4 30//4 26//4 25//4
f 27//5 31//5 29//5 25//5
f 32//6 28//6 26//6 30//6
f 33//1 34//1 36//1 35//1
f 35//2 36//2 40//2 39//2
f 39//3 40//3 38//3 37//3
f 37//4 38//4 34//4 33//4
f 35//5 39//5 37//5 33//5
f 40//6 36//6 34//6 38//6
f 41//1 42//1 44//1 43//1
f 43//2 44//2 48//2 47//2
f 47//3 48//3 46//3 45//3
f 45//4 46//4 42//4 41//4
f 43//5 47//5 45//5 41//5
f 48//6 44//6 42//6 46//6
